<?xml version="1.0" encoding="UTF-8"?>
<svg version="1.1" viewBox="0 0 1024 1024" width="1024" height="1024" xmlns="http://www.w3.org/2000/svg">
<path transform="translate(0)" d="m0 0h1024v1024h-1024z" fill="#1E27AE"/>
<path transform="translate(354,128)" d="m0 0h17l10 4 6 5 5 8 4 9 2 6-1 10-3 18h279l5-35 7-12 8-7 11-5 3-1h16l9 3 9 8 6 12 4 11-3 22-1 5h78l18 4 12 5 13 9 9 9 7 11 11 21 3 10v21l-14 99-12 89-10 73-5 37-8 58-2 14-5 13-7 11-9 9-16 12-16 13-17 13-17 14-13 10-16 13-16 12-15 12-13 10-15 12-10 7-15 8-16 4h-451l-16-4-14-7-10-8-8-9-14-21-5-13-1-5v-21l13-87 9-61 11-72 15-101 13-86 11-72 5-15 7-13 12-14 10-8 16-9 16-5 11-2h60l1-14 3-20 6-12 8-8 12-6z" fill="#1E27AE"/>
<path transform="translate(354,128)" d="m0 0h17l10 4 6 5 5 8 4 9 2 6-1 10-3 18h279l5-35 7-12 8-7 11-5 3-1h16l9 3 9 8 6 12 4 11-3 22-1 5h78l18 4 12 5 13 9 9 9 7 11 11 21 3 10v21l-14 99-12 89-10 73-5 37-8 58-2 14-5 13-7 11-9 9-16 12-16 13-17 13-17 14-13 10-16 13-16 12-15 12-13 10-15 12-10 7-15 8-16 4h-451l-16-4-14-7-10-8-8-9-14-21-5-13-1-5v-21l13-87 9-61 11-72 15-101 13-86 11-72 5-15 7-13 12-14 10-8 16-9 16-5 11-2h60l1-14 3-20 6-12 8-8 12-6zm-150 218-1 1-7 49-19 125-16 108-15 102-1 7v10l3 11 6 8 8 7 12 5 4 1h431l8-4 6-7 2-4 7-48 6-17 8-13 9-10 8-8 14-9 12-6 18-5 16-2h63l10-3 6-5 4-8 13-92 13-90 14-98v-5z" fill="#F9FAFB"/>
<path transform="translate(345,371)" d="m0 0h255l28 3 23 4 26 7 21 8 19 10 16 12 7 6 9 11 6 10 5 12 2 8v24l-4 16-8 16-6 9-12 14-14 12-18 12-23 12-23 9-31 9-26 5-23 3-31 2h-157l-2 9-16 49-13 38-7 21h-127l3-9 10-29 13-37 15-43 13-37 34-96 15-42 19-54z" fill="#FBFBFC"/>
<path transform="translate(267,220)" d="m0 0h48l1 2-4 27v9l4 10 9 8 9 3h16l12-4 8-6 6-7 3-7 5-34 1-1h141l142 1-1 13-2 14v11l3 8 5 6 9 5 9 2 13-1 11-4 8-6 6-7 4-11 4-30 1-1h40l47 1 12 4 9 6 7 8 4 8 1 3v17l-7 49-1 2h-642l3-22 6-38 4-10 8-11 11-9 13-6z" fill="#1E27AE"/>
<path transform="translate(354,128)" d="m0 0h17l10 4 6 5 5 8 4 9 2 6-1 10-3 18h279l5-35 7-12 8-7 11-5 3-1h16l9 3 9 8 6 12 4 11-3 22-5 35-5 2-4 30-4 11-9 10-10 6-13 3h-7l-11-3-9-6-6-9-1-4v-11l4-27h-283l-5 34-5 10-8 8-10 5-7 2h-16l-10-4-8-7-4-8-1-3v-9l4-28-2-3 5-28h-42v-1h45l1-14 3-20 6-12 8-8 12-6z" fill="#FBFBFC"/>
<path transform="translate(518,399)" d="m0 0h29l10 10 8 7 12 12 7 8 12 13 9 11 3 3v2h25l23 2 20 4 9 4 6 4 3 4-1 5-6 5-11 5-18 4-21 2-33 1-13 12-11 9-13 11-14 11-16 13-15 11-2 1h-27l6-8 12-15 14-19 14-20 5-8h-11l-62-5-20 15-10 7-3 2h-25l6-8 12-17 9-13-1-5-13-30-2-6h23l6 5 5 5 12 13 3 3 26-1 51-3-9-22-8-16-10-19z" fill="#1E27AE"/>
<path transform="translate(888,236)" d="m0 0 3 4 5 11 2 7v21l-14 99-12 89-10 73-5 37-8 58-2 14-5 13-7 11-9 9-16 12-16 13-17 13-17 14-13 10-16 13-16 12-15 12-13 10-15 12-10 7-15 8-16 4h-451l-16-4-14-7-10-8-8-9-2-5 8 6 11 6 12 5 10 2h448l12-3 16-8 54-42 13-10 11-9 18-14 28-22 13-10 16-13 13-10 11-9 10-15 3-8 12-83 24-170 11-75 5-38 1-6v-13z" fill="#9EADD8"/>
<path transform="translate(707,128)" d="m0 0h16l9 3 9 8 6 12 4 11-3 22-5 35-5 2-4 30-4 11-9 10-10 6-13 3h-7l-11-3-9-6-6-9-1-4v-11l4-27h-142v-1l140-1 4-27 1-2h-270v-1l272-1 5-35 7-12 8-7 11-5z" fill="#FBFBFC"/>
<path transform="translate(394,189)" d="m0 0 277 1-4 30-163 1h-114l-1-2 4-29z" fill="#FBFCFC"/>
<path transform="translate(267,220)" d="m0 0h48l1 2-2 9-3-2-8-2h-33l-15 4-12 5-8 5-8 13-3 4h-2v2h-2v2h-2l-2 24 1 6-2 6-1 18 2 2h-8l3-22 6-38 4-10 8-11 11-9 13-6z" fill="#121084"/>
<path transform="translate(204,346)" d="m0 0h642l-1 13-2 1v-6h-2l-2-6h-593v2l-25 1-1 1-11 2-5 1-2 17-1 6h-1v-9l3-22z" fill="#120F82"/>
<path transform="translate(738,220)" d="m0 0h40l47 1 12 4 9 6 5 5-1 2-6-5-3-2-3-3-3-1h-10l-10-2h-14l-4 1h-47l-7 2-1 1-2 11h-2v6l-3 8h-1v-10l3-23z" fill="#14138A"/>
<path transform="translate(221,723)" d="m0 0h127v1l-6 1-4 2-42 2h-68l-2-4-5-1z" fill="#120F82"/>
<path transform="translate(385,220)" d="m0 0h141l142 1v6l-5 1-20-3v-2h-239v1l-10 2-5 3-4 9-3 16h-1v-11l3-22z" fill="#131287"/>
<path transform="translate(673,188)" d="m0 0 1 2-3 22-2 12-1-3h-142v-1l140-1 4-27 1-2h-270v-1z" fill="#9EADD8"/>
<path transform="translate(761,490)" d="m0 0 1 4-4 15-1 5-5 10-4 4-5 10-3 3h-2v2l-8 5-2 4-8 2v2h-2l-2 4-7 6-6 2-5-1v-2l16-10 13-11 8-7 9-11 8-13 5-11 3-11z" fill="#131287"/>
<path transform="translate(746,151)" d="m0 0 3 4 2 10-7 47-1 7-6 2 2-20z" fill="#9EADD8"/>
<path transform="translate(393,151)" d="m0 0 4 5 1 9-4 25-4 29-6 2 1-12z" fill="#9EADD8"/>
<path transform="translate(184,474)" d="m0 0h2l-1 12-2 16 1 3-1 10-3 15-1 1v9l-3 6v14l-3 1-1 12-4 25h-1v-10l16-107z" fill="#14148C"/>
<path transform="translate(375,264)" d="m0 0v3l-3 7-10 5-5 5-14 2h-8l-10-5-2-4-2-2 4 1 9 3h16l12-4 8-6z" fill="#131287"/>
<path transform="translate(164,613)" d="m0 0h1l-1 18 1 5-1 17-4 18-2 7-3 2v-11l8-53z" fill="#131287"/>
<path transform="translate(386,605)" d="m0 0h167v1h-161v3l-5 1-4 12h-1l1-8z" fill="#121084"/>
<path transform="translate(150,709)" d="m0 0h1v10l1 7-1 13v20l4 6 1 2-4-2-5-9-2-8v-10l4-28z" fill="#141389"/>
<path transform="translate(217,262)" d="m0 0h1l-2 24 1 6-2 6-1 18 2 2h-8l3-22 5-32z" fill="#141389"/>
<path transform="translate(199,379)" d="m0 0h1l-1 14-2 18-2 12 1 3-3 8-6 37h-1v-10l11-71z" fill="#15168F"/>
<path transform="translate(276,189)" d="m0 0h45l-1 11-4 21-3-3 5-28h-42z" fill="#9EADD8"/>
<path transform="translate(657,221)" d="m0 0h11v6l-5 1-20-3v-2h14z" fill="#121084"/>
<path transform="translate(173,548)" d="m0 0 1 3h2v9l-3 1-1 12-4 25h-1v-10z" fill="#16168F"/>
<path transform="translate(358,689)" d="m0 0h2l-3 11-2 13-1 5h-2v2l-4 3 1-7z" fill="#14148C"/>
<path transform="translate(505,558)" d="m0 0 1 4-3 8v3h-10l6-8z" fill="#131287"/>
<path transform="translate(421,511)" d="m0 0 2 1v8l11 1v1h-21l6-8z" fill="#131287"/>
<path transform="translate(641,589)" d="m0 0h5l-6 4-4 1v2l-5 1-6-1-4-1z" fill="#14148B"/>
<path transform="translate(375,264)" d="m0 0v3l-3 7-10 5h-2v-3l9-6z" fill="#14148C"/>
<path transform="translate(840,346)" d="m0 0h6l-1 13-2 1v-6h-2l-2-6z" fill="#131288"/>
<path transform="translate(177,531)" d="m0 0h2v9l-3 6-1 5h-1v-9l2-10z" fill="#131287"/>
<path transform="translate(532,399)" d="m0 0h15l2 4-2-1-22-1v2l-3-1v-2z" fill="#14148C"/>
<path transform="translate(173,548)" d="m0 0 1 3h2v9l-3 1-1 5-1-4z" fill="#15148C"/>
<path transform="translate(369,659)" d="m0 0 1 3v4h-2l-3 10-2 3 1-8z" fill="#15168E"/>
<path transform="translate(835,225)" d="m0 0 6 2 10 9-1 2-6-5-3-2-3-3-3-1z" fill="#15168E"/>
<path transform="translate(518,399)" d="m0 0h14v1h-10l2 7h-2z" fill="#1A1F9E"/>
<path transform="translate(195,411)" d="m0 0h2l-2 11-2 1v-7z" fill="#131187"/>
</svg>
